<svg xmlns="http://www.w3.org/2000/svg" xmlns:xlink="http://www.w3.org/1999/xlink" width="500" zoomAndPan="magnify" viewBox="0 0 375 374.999991" height="500" preserveAspectRatio="xMidYMid meet" version="1.0"><defs><g/><clipPath id="d16f765793"><path d="M 155.074219 154.585938 L 218 154.585938 L 218 219.085938 L 155.074219 219.085938 Z M 155.074219 154.585938 " clip-rule="nonzero"/></clipPath></defs><g fill="#ff00ff" fill-opacity="1"><g transform="translate(10.883414, 234.555606)"><g><path d="M 3.984375 -71.53125 C 3.984375 -92.195312 11.023438 -109.6875 25.109375 -124 C 39.191406 -138.320312 56.164062 -145.484375 76.03125 -145.484375 C 96 -145.484375 112.96875 -138.351562 126.9375 -124.09375 C 140.914062 -109.832031 147.90625 -92.3125 147.90625 -71.53125 C 147.90625 -50.625 141.035156 -33.039062 127.296875 -18.78125 C 113.554688 -4.53125 96.46875 2.59375 76.03125 2.59375 C 55.132812 2.59375 37.898438 -4.472656 24.328125 -18.609375 C 10.765625 -32.753906 3.984375 -50.394531 3.984375 -71.53125 Z M 39.140625 -71.53125 C 39.140625 -64.019531 40.289062 -57.175781 42.59375 -51 C 44.90625 -44.820312 48.945312 -39.597656 54.71875 -35.328125 C 60.5 -31.054688 67.601562 -28.921875 76.03125 -28.921875 C 88.15625 -28.921875 97.304688 -33.078125 103.484375 -41.390625 C 109.660156 -49.703125 112.75 -59.75 112.75 -71.53125 C 112.75 -83.1875 109.601562 -93.195312 103.3125 -101.5625 C 97.019531 -109.9375 87.925781 -114.125 76.03125 -114.125 C 64.25 -114.125 55.15625 -109.9375 48.75 -101.5625 C 42.34375 -93.195312 39.140625 -83.1875 39.140625 -71.53125 Z M 39.140625 -71.53125 "/></g></g></g><g fill="#ff00ff" fill-opacity="1"><g transform="translate(149.248151, 234.555606)"><g><path d="M 63.046875 -145.484375 C 70.773438 -145.484375 78.332031 -144.351562 85.71875 -142.09375 C 93.113281 -139.84375 98.601562 -137.625 102.1875 -135.4375 L 107.375 -131.96875 L 94.21875 -105.984375 C 93.175781 -106.679688 91.726562 -107.578125 89.875 -108.671875 C 88.03125 -109.773438 84.566406 -111.25 79.484375 -113.09375 C 74.410156 -114.9375 69.679688 -115.859375 65.296875 -115.859375 C 59.867188 -115.859375 55.679688 -114.703125 52.734375 -112.390625 C 49.785156 -110.085938 48.3125 -106.972656 48.3125 -103.046875 C 48.3125 -101.085938 49.003906 -99.269531 50.390625 -97.59375 C 51.773438 -95.914062 54.140625 -94.125 57.484375 -92.21875 C 60.835938 -90.3125 63.785156 -88.78125 66.328125 -87.625 C 68.867188 -86.476562 72.796875 -84.75 78.109375 -82.4375 C 87.347656 -78.507812 95.226562 -73.164062 101.75 -66.40625 C 108.269531 -59.65625 111.53125 -52.007812 111.53125 -43.46875 C 111.53125 -35.269531 110.054688 -28.109375 107.109375 -21.984375 C 104.171875 -15.867188 100.128906 -11.078125 94.984375 -7.609375 C 89.847656 -4.148438 84.160156 -1.585938 77.921875 0.078125 C 71.691406 1.753906 64.941406 2.59375 57.671875 2.59375 C 51.429688 2.59375 45.3125 1.957031 39.3125 0.6875 C 33.3125 -0.582031 28.289062 -2.164062 24.25 -4.0625 C 20.207031 -5.96875 16.566406 -7.84375 13.328125 -9.6875 C 10.097656 -11.539062 7.734375 -13.101562 6.234375 -14.375 L 3.984375 -16.28125 L 20.265625 -43.640625 C 21.648438 -42.484375 23.550781 -41.007812 25.96875 -39.21875 C 28.394531 -37.4375 32.695312 -35.039062 38.875 -32.03125 C 45.050781 -29.03125 50.507812 -27.53125 55.25 -27.53125 C 68.988281 -27.53125 75.859375 -32.207031 75.859375 -41.5625 C 75.859375 -43.53125 75.363281 -45.347656 74.375 -47.015625 C 73.394531 -48.691406 71.664062 -50.363281 69.1875 -52.03125 C 66.707031 -53.707031 64.515625 -55.035156 62.609375 -56.015625 C 60.703125 -57.003906 57.582031 -58.507812 53.25 -60.53125 C 48.925781 -62.550781 45.722656 -64.082031 43.640625 -65.125 C 34.984375 -69.394531 28.285156 -74.734375 23.546875 -81.140625 C 18.816406 -87.546875 16.453125 -94.441406 16.453125 -101.828125 C 16.453125 -114.648438 21.1875 -125.128906 30.65625 -133.265625 C 40.125 -141.410156 50.921875 -145.484375 63.046875 -145.484375 Z M 63.046875 -145.484375 "/></g></g></g><g fill="#ff00ff" fill-opacity="1"><g transform="translate(252.112157, 234.555606)"><g><path d="M 63.046875 -145.484375 C 70.773438 -145.484375 78.332031 -144.351562 85.71875 -142.09375 C 93.113281 -139.84375 98.601562 -137.625 102.1875 -135.4375 L 107.375 -131.96875 L 94.21875 -105.984375 C 93.175781 -106.679688 91.726562 -107.578125 89.875 -108.671875 C 88.03125 -109.773438 84.566406 -111.25 79.484375 -113.09375 C 74.410156 -114.9375 69.679688 -115.859375 65.296875 -115.859375 C 59.867188 -115.859375 55.679688 -114.703125 52.734375 -112.390625 C 49.785156 -110.085938 48.3125 -106.972656 48.3125 -103.046875 C 48.3125 -101.085938 49.003906 -99.269531 50.390625 -97.59375 C 51.773438 -95.914062 54.140625 -94.125 57.484375 -92.21875 C 60.835938 -90.3125 63.785156 -88.78125 66.328125 -87.625 C 68.867188 -86.476562 72.796875 -84.75 78.109375 -82.4375 C 87.347656 -78.507812 95.226562 -73.164062 101.75 -66.40625 C 108.269531 -59.65625 111.53125 -52.007812 111.53125 -43.46875 C 111.53125 -35.269531 110.054688 -28.109375 107.109375 -21.984375 C 104.171875 -15.867188 100.128906 -11.078125 94.984375 -7.609375 C 89.847656 -4.148438 84.160156 -1.585938 77.921875 0.078125 C 71.691406 1.753906 64.941406 2.59375 57.671875 2.59375 C 51.429688 2.59375 45.3125 1.957031 39.3125 0.6875 C 33.3125 -0.582031 28.289062 -2.164062 24.25 -4.0625 C 20.207031 -5.96875 16.566406 -7.84375 13.328125 -9.6875 C 10.097656 -11.539062 7.734375 -13.101562 6.234375 -14.375 L 3.984375 -16.28125 L 20.265625 -43.640625 C 21.648438 -42.484375 23.550781 -41.007812 25.96875 -39.21875 C 28.394531 -37.4375 32.695312 -35.039062 38.875 -32.03125 C 45.050781 -29.03125 50.507812 -27.53125 55.25 -27.53125 C 68.988281 -27.53125 75.859375 -32.207031 75.859375 -41.5625 C 75.859375 -43.53125 75.363281 -45.347656 74.375 -47.015625 C 73.394531 -48.691406 71.664062 -50.363281 69.1875 -52.03125 C 66.707031 -53.707031 64.515625 -55.035156 62.609375 -56.015625 C 60.703125 -57.003906 57.582031 -58.507812 53.25 -60.53125 C 48.925781 -62.550781 45.722656 -64.082031 43.640625 -65.125 C 34.984375 -69.394531 28.285156 -74.734375 23.546875 -81.140625 C 18.816406 -87.546875 16.453125 -94.441406 16.453125 -101.828125 C 16.453125 -114.648438 21.1875 -125.128906 30.65625 -133.265625 C 40.125 -141.410156 50.921875 -145.484375 63.046875 -145.484375 Z M 63.046875 -145.484375 "/></g></g></g><g fill="#00ffff" fill-opacity="1"><g transform="translate(4.38862, 234.555606)"><g><path d="M 3.984375 -71.53125 C 3.984375 -92.195312 11.023438 -109.6875 25.109375 -124 C 39.191406 -138.320312 56.164062 -145.484375 76.03125 -145.484375 C 96 -145.484375 112.96875 -138.351562 126.9375 -124.09375 C 140.914062 -109.832031 147.90625 -92.3125 147.90625 -71.53125 C 147.90625 -50.625 141.035156 -33.039062 127.296875 -18.78125 C 113.554688 -4.53125 96.46875 2.59375 76.03125 2.59375 C 55.132812 2.59375 37.898438 -4.472656 24.328125 -18.609375 C 10.765625 -32.753906 3.984375 -50.394531 3.984375 -71.53125 Z M 39.140625 -71.53125 C 39.140625 -64.019531 40.289062 -57.175781 42.59375 -51 C 44.90625 -44.820312 48.945312 -39.597656 54.71875 -35.328125 C 60.5 -31.054688 67.601562 -28.921875 76.03125 -28.921875 C 88.15625 -28.921875 97.304688 -33.078125 103.484375 -41.390625 C 109.660156 -49.703125 112.75 -59.75 112.75 -71.53125 C 112.75 -83.1875 109.601562 -93.195312 103.3125 -101.5625 C 97.019531 -109.9375 87.925781 -114.125 76.03125 -114.125 C 64.25 -114.125 55.15625 -109.9375 48.75 -101.5625 C 42.34375 -93.195312 39.140625 -83.1875 39.140625 -71.53125 Z M 39.140625 -71.53125 "/></g></g></g><g fill="#00ffff" fill-opacity="1"><g transform="translate(142.753358, 234.555606)"><g><path d="M 63.046875 -145.484375 C 70.773438 -145.484375 78.332031 -144.351562 85.71875 -142.09375 C 93.113281 -139.84375 98.601562 -137.625 102.1875 -135.4375 L 107.375 -131.96875 L 94.21875 -105.984375 C 93.175781 -106.679688 91.726562 -107.578125 89.875 -108.671875 C 88.03125 -109.773438 84.566406 -111.25 79.484375 -113.09375 C 74.410156 -114.9375 69.679688 -115.859375 65.296875 -115.859375 C 59.867188 -115.859375 55.679688 -114.703125 52.734375 -112.390625 C 49.785156 -110.085938 48.3125 -106.972656 48.3125 -103.046875 C 48.3125 -101.085938 49.003906 -99.269531 50.390625 -97.59375 C 51.773438 -95.914062 54.140625 -94.125 57.484375 -92.21875 C 60.835938 -90.3125 63.785156 -88.78125 66.328125 -87.625 C 68.867188 -86.476562 72.796875 -84.75 78.109375 -82.4375 C 87.347656 -78.507812 95.226562 -73.164062 101.75 -66.40625 C 108.269531 -59.65625 111.53125 -52.007812 111.53125 -43.46875 C 111.53125 -35.269531 110.054688 -28.109375 107.109375 -21.984375 C 104.171875 -15.867188 100.128906 -11.078125 94.984375 -7.609375 C 89.847656 -4.148438 84.160156 -1.585938 77.921875 0.078125 C 71.691406 1.753906 64.941406 2.59375 57.671875 2.59375 C 51.429688 2.59375 45.3125 1.957031 39.3125 0.6875 C 33.3125 -0.582031 28.289062 -2.164062 24.25 -4.0625 C 20.207031 -5.96875 16.566406 -7.84375 13.328125 -9.6875 C 10.097656 -11.539062 7.734375 -13.101562 6.234375 -14.375 L 3.984375 -16.28125 L 20.265625 -43.640625 C 21.648438 -42.484375 23.550781 -41.007812 25.96875 -39.21875 C 28.394531 -37.4375 32.695312 -35.039062 38.875 -32.03125 C 45.050781 -29.03125 50.507812 -27.53125 55.25 -27.53125 C 68.988281 -27.53125 75.859375 -32.207031 75.859375 -41.5625 C 75.859375 -43.53125 75.363281 -45.347656 74.375 -47.015625 C 73.394531 -48.691406 71.664062 -50.363281 69.1875 -52.03125 C 66.707031 -53.707031 64.515625 -55.035156 62.609375 -56.015625 C 60.703125 -57.003906 57.582031 -58.507812 53.25 -60.53125 C 48.925781 -62.550781 45.722656 -64.082031 43.640625 -65.125 C 34.984375 -69.394531 28.285156 -74.734375 23.546875 -81.140625 C 18.816406 -87.546875 16.453125 -94.441406 16.453125 -101.828125 C 16.453125 -114.648438 21.1875 -125.128906 30.65625 -133.265625 C 40.125 -141.410156 50.921875 -145.484375 63.046875 -145.484375 Z M 63.046875 -145.484375 "/></g></g></g><g fill="#00ffff" fill-opacity="1"><g transform="translate(245.617363, 234.555606)"><g><path d="M 63.046875 -145.484375 C 70.773438 -145.484375 78.332031 -144.351562 85.71875 -142.09375 C 93.113281 -139.84375 98.601562 -137.625 102.1875 -135.4375 L 107.375 -131.96875 L 94.21875 -105.984375 C 93.175781 -106.679688 91.726562 -107.578125 89.875 -108.671875 C 88.03125 -109.773438 84.566406 -111.25 79.484375 -113.09375 C 74.410156 -114.9375 69.679688 -115.859375 65.296875 -115.859375 C 59.867188 -115.859375 55.679688 -114.703125 52.734375 -112.390625 C 49.785156 -110.085938 48.3125 -106.972656 48.3125 -103.046875 C 48.3125 -101.085938 49.003906 -99.269531 50.390625 -97.59375 C 51.773438 -95.914062 54.140625 -94.125 57.484375 -92.21875 C 60.835938 -90.3125 63.785156 -88.78125 66.328125 -87.625 C 68.867188 -86.476562 72.796875 -84.75 78.109375 -82.4375 C 87.347656 -78.507812 95.226562 -73.164062 101.75 -66.40625 C 108.269531 -59.65625 111.53125 -52.007812 111.53125 -43.46875 C 111.53125 -35.269531 110.054688 -28.109375 107.109375 -21.984375 C 104.171875 -15.867188 100.128906 -11.078125 94.984375 -7.609375 C 89.847656 -4.148438 84.160156 -1.585938 77.921875 0.078125 C 71.691406 1.753906 64.941406 2.59375 57.671875 2.59375 C 51.429688 2.59375 45.3125 1.957031 39.3125 0.6875 C 33.3125 -0.582031 28.289062 -2.164062 24.25 -4.0625 C 20.207031 -5.96875 16.566406 -7.84375 13.328125 -9.6875 C 10.097656 -11.539062 7.734375 -13.101562 6.234375 -14.375 L 3.984375 -16.28125 L 20.265625 -43.640625 C 21.648438 -42.484375 23.550781 -41.007812 25.96875 -39.21875 C 28.394531 -37.4375 32.695312 -35.039062 38.875 -32.03125 C 45.050781 -29.03125 50.507812 -27.53125 55.25 -27.53125 C 68.988281 -27.53125 75.859375 -32.207031 75.859375 -41.5625 C 75.859375 -43.53125 75.363281 -45.347656 74.375 -47.015625 C 73.394531 -48.691406 71.664062 -50.363281 69.1875 -52.03125 C 66.707031 -53.707031 64.515625 -55.035156 62.609375 -56.015625 C 60.703125 -57.003906 57.582031 -58.507812 53.25 -60.53125 C 48.925781 -62.550781 45.722656 -64.082031 43.640625 -65.125 C 34.984375 -69.394531 28.285156 -74.734375 23.546875 -81.140625 C 18.816406 -87.546875 16.453125 -94.441406 16.453125 -101.828125 C 16.453125 -114.648438 21.1875 -125.128906 30.65625 -133.265625 C 40.125 -141.410156 50.921875 -145.484375 63.046875 -145.484375 Z M 63.046875 -145.484375 "/></g></g></g><g fill="#000000" fill-opacity="1"><g transform="translate(7.636017, 234.555606)"><g><path d="M 3.984375 -71.53125 C 3.984375 -92.195312 11.023438 -109.6875 25.109375 -124 C 39.191406 -138.320312 56.164062 -145.484375 76.03125 -145.484375 C 96 -145.484375 112.96875 -138.351562 126.9375 -124.09375 C 140.914062 -109.832031 147.90625 -92.3125 147.90625 -71.53125 C 147.90625 -50.625 141.035156 -33.039062 127.296875 -18.78125 C 113.554688 -4.53125 96.46875 2.59375 76.03125 2.59375 C 55.132812 2.59375 37.898438 -4.472656 24.328125 -18.609375 C 10.765625 -32.753906 3.984375 -50.394531 3.984375 -71.53125 Z M 39.140625 -71.53125 C 39.140625 -64.019531 40.289062 -57.175781 42.59375 -51 C 44.90625 -44.820312 48.945312 -39.597656 54.71875 -35.328125 C 60.5 -31.054688 67.601562 -28.921875 76.03125 -28.921875 C 88.15625 -28.921875 97.304688 -33.078125 103.484375 -41.390625 C 109.660156 -49.703125 112.75 -59.75 112.75 -71.53125 C 112.75 -83.1875 109.601562 -93.195312 103.3125 -101.5625 C 97.019531 -109.9375 87.925781 -114.125 76.03125 -114.125 C 64.25 -114.125 55.15625 -109.9375 48.75 -101.5625 C 42.34375 -93.195312 39.140625 -83.1875 39.140625 -71.53125 Z M 39.140625 -71.53125 "/></g></g></g><g fill="#000000" fill-opacity="1"><g transform="translate(146.000755, 234.555606)"><g><path d="M 63.046875 -145.484375 C 70.773438 -145.484375 78.332031 -144.351562 85.71875 -142.09375 C 93.113281 -139.84375 98.601562 -137.625 102.1875 -135.4375 L 107.375 -131.96875 L 94.21875 -105.984375 C 93.175781 -106.679688 91.726562 -107.578125 89.875 -108.671875 C 88.03125 -109.773438 84.566406 -111.25 79.484375 -113.09375 C 74.410156 -114.9375 69.679688 -115.859375 65.296875 -115.859375 C 59.867188 -115.859375 55.679688 -114.703125 52.734375 -112.390625 C 49.785156 -110.085938 48.3125 -106.972656 48.3125 -103.046875 C 48.3125 -101.085938 49.003906 -99.269531 50.390625 -97.59375 C 51.773438 -95.914062 54.140625 -94.125 57.484375 -92.21875 C 60.835938 -90.3125 63.785156 -88.78125 66.328125 -87.625 C 68.867188 -86.476562 72.796875 -84.75 78.109375 -82.4375 C 87.347656 -78.507812 95.226562 -73.164062 101.75 -66.40625 C 108.269531 -59.65625 111.53125 -52.007812 111.53125 -43.46875 C 111.53125 -35.269531 110.054688 -28.109375 107.109375 -21.984375 C 104.171875 -15.867188 100.128906 -11.078125 94.984375 -7.609375 C 89.847656 -4.148438 84.160156 -1.585938 77.921875 0.078125 C 71.691406 1.753906 64.941406 2.59375 57.671875 2.59375 C 51.429688 2.59375 45.3125 1.957031 39.3125 0.6875 C 33.3125 -0.582031 28.289062 -2.164062 24.25 -4.0625 C 20.207031 -5.96875 16.566406 -7.84375 13.328125 -9.6875 C 10.097656 -11.539062 7.734375 -13.101562 6.234375 -14.375 L 3.984375 -16.28125 L 20.265625 -43.640625 C 21.648438 -42.484375 23.550781 -41.007812 25.96875 -39.21875 C 28.394531 -37.4375 32.695312 -35.039062 38.875 -32.03125 C 45.050781 -29.03125 50.507812 -27.53125 55.25 -27.53125 C 68.988281 -27.53125 75.859375 -32.207031 75.859375 -41.5625 C 75.859375 -43.53125 75.363281 -45.347656 74.375 -47.015625 C 73.394531 -48.691406 71.664062 -50.363281 69.1875 -52.03125 C 66.707031 -53.707031 64.515625 -55.035156 62.609375 -56.015625 C 60.703125 -57.003906 57.582031 -58.507812 53.25 -60.53125 C 48.925781 -62.550781 45.722656 -64.082031 43.640625 -65.125 C 34.984375 -69.394531 28.285156 -74.734375 23.546875 -81.140625 C 18.816406 -87.546875 16.453125 -94.441406 16.453125 -101.828125 C 16.453125 -114.648438 21.1875 -125.128906 30.65625 -133.265625 C 40.125 -141.410156 50.921875 -145.484375 63.046875 -145.484375 Z M 63.046875 -145.484375 "/></g></g></g><g fill="#000000" fill-opacity="1"><g transform="translate(248.86476, 234.555606)"><g><path d="M 63.046875 -145.484375 C 70.773438 -145.484375 78.332031 -144.351562 85.71875 -142.09375 C 93.113281 -139.84375 98.601562 -137.625 102.1875 -135.4375 L 107.375 -131.96875 L 94.21875 -105.984375 C 93.175781 -106.679688 91.726562 -107.578125 89.875 -108.671875 C 88.03125 -109.773438 84.566406 -111.25 79.484375 -113.09375 C 74.410156 -114.9375 69.679688 -115.859375 65.296875 -115.859375 C 59.867188 -115.859375 55.679688 -114.703125 52.734375 -112.390625 C 49.785156 -110.085938 48.3125 -106.972656 48.3125 -103.046875 C 48.3125 -101.085938 49.003906 -99.269531 50.390625 -97.59375 C 51.773438 -95.914062 54.140625 -94.125 57.484375 -92.21875 C 60.835938 -90.3125 63.785156 -88.78125 66.328125 -87.625 C 68.867188 -86.476562 72.796875 -84.75 78.109375 -82.4375 C 87.347656 -78.507812 95.226562 -73.164062 101.75 -66.40625 C 108.269531 -59.65625 111.53125 -52.007812 111.53125 -43.46875 C 111.53125 -35.269531 110.054688 -28.109375 107.109375 -21.984375 C 104.171875 -15.867188 100.128906 -11.078125 94.984375 -7.609375 C 89.847656 -4.148438 84.160156 -1.585938 77.921875 0.078125 C 71.691406 1.753906 64.941406 2.59375 57.671875 2.59375 C 51.429688 2.59375 45.3125 1.957031 39.3125 0.6875 C 33.3125 -0.582031 28.289062 -2.164062 24.25 -4.0625 C 20.207031 -5.96875 16.566406 -7.84375 13.328125 -9.6875 C 10.097656 -11.539062 7.734375 -13.101562 6.234375 -14.375 L 3.984375 -16.28125 L 20.265625 -43.640625 C 21.648438 -42.484375 23.550781 -41.007812 25.96875 -39.21875 C 28.394531 -37.4375 32.695312 -35.039062 38.875 -32.03125 C 45.050781 -29.03125 50.507812 -27.53125 55.25 -27.53125 C 68.988281 -27.53125 75.859375 -32.207031 75.859375 -41.5625 C 75.859375 -43.53125 75.363281 -45.347656 74.375 -47.015625 C 73.394531 -48.691406 71.664062 -50.363281 69.1875 -52.03125 C 66.707031 -53.707031 64.515625 -55.035156 62.609375 -56.015625 C 60.703125 -57.003906 57.582031 -58.507812 53.25 -60.53125 C 48.925781 -62.550781 45.722656 -64.082031 43.640625 -65.125 C 34.984375 -69.394531 28.285156 -74.734375 23.546875 -81.140625 C 18.816406 -87.546875 16.453125 -94.441406 16.453125 -101.828125 C 16.453125 -114.648438 21.1875 -125.128906 30.65625 -133.265625 C 40.125 -141.410156 50.921875 -145.484375 63.046875 -145.484375 Z M 63.046875 -145.484375 "/></g></g></g><g clip-path="url(#d16f765793)"><path fill="#e4e1da" d="M 217.8125 186.304688 L 208.558594 186.304688 C 192.71875 182.878906 189.199219 179.34375 185.769531 163.480469 L 185.769531 154.589844 L 184.597656 154.589844 L 184.597656 163.574219 C 181.179688 179.355469 177.636719 182.882812 161.832031 186.304688 L 155.082031 186.304688 L 155.082031 187.476562 L 161.832031 187.476562 C 177.636719 190.898438 181.179688 194.421875 184.597656 210.207031 L 184.597656 219.027344 L 185.769531 219.027344 L 185.769531 210.300781 C 189.199219 194.4375 192.71875 190.902344 208.558594 187.476562 L 217.8125 187.476562 Z M 217.8125 186.304688 " fill-opacity="1" fill-rule="nonzero"/></g></svg>