<svg xmlns="http://www.w3.org/2000/svg" xmlns:xlink="http://www.w3.org/1999/xlink" width="500" zoomAndPan="magnify" viewBox="0 0 375 374.999991" height="500" preserveAspectRatio="xMidYMid meet" version="1.0"><defs><g/><clipPath id="3e65b2ab41"><path d="M 155.074219 154.585938 L 218 154.585938 L 218 219.085938 L 155.074219 219.085938 Z M 155.074219 154.585938 " clip-rule="nonzero"/></clipPath></defs><g fill="#ff00ff" fill-opacity="1"><g transform="translate(11.265256, 214.289567)"><g><path d="M 59.34375 -45.359375 C 64.1875 -40.078125 66.609375 -33.601562 66.609375 -25.9375 C 66.609375 -18.269531 64.1875 -11.773438 59.34375 -6.453125 C 54.5 -1.140625 48.34375 1.515625 40.875 1.515625 C 34.007812 1.515625 28.359375 -0.632812 23.921875 -4.9375 L 23.921875 26.234375 L 6.0625 26.234375 L 6.0625 -51.765625 L 23.71875 -51.765625 L 23.71875 -45.921875 L 23.921875 -45.921875 C 28.359375 -50.828125 34.007812 -53.28125 40.875 -53.28125 C 48.34375 -53.28125 54.5 -50.640625 59.34375 -45.359375 Z M 44.15625 -17.15625 C 46.476562 -19.445312 47.640625 -22.375 47.640625 -25.9375 C 47.640625 -29.5 46.523438 -32.40625 44.296875 -34.65625 C 42.078125 -36.914062 39.15625 -38.046875 35.53125 -38.046875 C 32.03125 -38.046875 29.148438 -36.898438 26.890625 -34.609375 C 24.640625 -32.328125 23.515625 -29.4375 23.515625 -25.9375 C 23.515625 -22.375 24.675781 -19.445312 27 -17.15625 C 29.320312 -14.863281 32.164062 -13.71875 35.53125 -13.71875 C 38.957031 -13.71875 41.832031 -14.863281 44.15625 -17.15625 Z M 44.15625 -17.15625 "/></g></g></g><g fill="#ff00ff" fill-opacity="1"><g transform="translate(72.319319, 214.289567)"><g><path d="M 6.0625 0 L 6.0625 -51.765625 L 23.921875 -51.765625 L 23.921875 -44.3125 L 24.125 -44.3125 C 24.257812 -44.570312 24.476562 -44.90625 24.78125 -45.3125 C 25.082031 -45.71875 25.738281 -46.425781 26.75 -47.4375 C 27.757812 -48.445312 28.832031 -49.351562 29.96875 -50.15625 C 31.113281 -50.96875 32.59375 -51.691406 34.40625 -52.328125 C 36.226562 -52.960938 38.082031 -53.28125 39.96875 -53.28125 C 41.914062 -53.28125 43.832031 -53.007812 45.71875 -52.46875 C 47.601562 -51.9375 48.984375 -51.398438 49.859375 -50.859375 L 51.265625 -50.0625 L 43.796875 -34.921875 C 41.578125 -36.804688 38.484375 -37.75 34.515625 -37.75 C 32.359375 -37.75 30.503906 -37.273438 28.953125 -36.328125 C 27.410156 -35.390625 26.316406 -34.242188 25.671875 -32.890625 C 25.035156 -31.546875 24.582031 -30.40625 24.3125 -29.46875 C 24.050781 -28.53125 23.921875 -27.789062 23.921875 -27.25 L 23.921875 0 Z M 6.0625 0 "/></g></g></g><g fill="#ff00ff" fill-opacity="1"><g transform="translate(114.703677, 214.289567)"><g><path d="M 10.953125 -6.15625 C 5.203125 -11.269531 2.328125 -17.828125 2.328125 -25.828125 C 2.328125 -33.835938 5.316406 -40.414062 11.296875 -45.5625 C 17.285156 -50.707031 24.6875 -53.28125 33.5 -53.28125 C 42.1875 -53.28125 49.503906 -50.691406 55.453125 -45.515625 C 61.410156 -40.335938 64.390625 -33.773438 64.390625 -25.828125 C 64.390625 -17.890625 61.476562 -11.347656 55.65625 -6.203125 C 49.832031 -1.054688 42.445312 1.515625 33.5 1.515625 C 24.21875 1.515625 16.703125 -1.039062 10.953125 -6.15625 Z M 24.78125 -34.609375 C 22.457031 -32.328125 21.296875 -29.398438 21.296875 -25.828125 C 21.296875 -22.265625 22.40625 -19.351562 24.625 -17.09375 C 26.84375 -14.84375 29.769531 -13.71875 33.40625 -13.71875 C 36.90625 -13.71875 39.78125 -14.863281 42.03125 -17.15625 C 44.289062 -19.445312 45.421875 -22.34375 45.421875 -25.84375 C 45.421875 -29.40625 44.257812 -32.328125 41.9375 -34.609375 C 39.613281 -36.898438 36.769531 -38.046875 33.40625 -38.046875 C 29.976562 -38.046875 27.101562 -36.898438 24.78125 -34.609375 Z M 24.78125 -34.609375 "/></g></g></g><g fill="#ff00ff" fill-opacity="1"><g transform="translate(173.537555, 214.289567)"><g><path d="M 3.734375 12.71875 L 18.375 5.546875 C 21.0625 9.992188 25.734375 12.21875 32.390625 12.21875 C 35.484375 12.21875 38.359375 11.222656 41.015625 9.234375 C 43.679688 7.242188 45.015625 4.195312 45.015625 0.09375 L 45.015625 -3.734375 C 41.847656 -0.234375 36.195312 1.515625 28.0625 1.515625 C 20.59375 1.515625 14.4375 -1.125 9.59375 -6.40625 C 4.75 -11.6875 2.328125 -18.160156 2.328125 -25.828125 C 2.328125 -33.503906 4.75 -40 9.59375 -45.3125 C 14.4375 -50.625 20.59375 -53.28125 28.0625 -53.28125 C 34.71875 -53.28125 40.265625 -51.226562 44.703125 -47.125 L 45.015625 -47.125 L 45.015625 -51.765625 L 62.875 -51.765625 L 62.875 1.40625 C 62.875 9.820312 60.082031 16.316406 54.5 20.890625 C 48.914062 25.460938 41.546875 27.75 32.390625 27.75 C 17.585938 27.75 8.035156 22.738281 3.734375 12.71875 Z M 24.78125 -34.609375 C 22.457031 -32.328125 21.296875 -29.398438 21.296875 -25.828125 C 21.296875 -22.265625 22.40625 -19.351562 24.625 -17.09375 C 26.84375 -14.84375 29.769531 -13.71875 33.40625 -13.71875 C 36.90625 -13.71875 39.78125 -14.863281 42.03125 -17.15625 C 44.289062 -19.445312 45.421875 -22.34375 45.421875 -25.84375 C 45.421875 -29.40625 44.257812 -32.328125 41.9375 -34.609375 C 39.613281 -36.898438 36.769531 -38.046875 33.40625 -38.046875 C 29.976562 -38.046875 27.101562 -36.898438 24.78125 -34.609375 Z M 24.78125 -34.609375 "/></g></g></g><g fill="#ff00ff" fill-opacity="1"><g transform="translate(234.591618, 214.289567)"><g><path d="M 28.5625 -53.28125 C 31.519531 -53.28125 34.445312 -52.941406 37.34375 -52.265625 C 40.238281 -51.597656 42.390625 -50.929688 43.796875 -50.265625 L 45.921875 -49.25 L 40.0625 -37.546875 C 36.03125 -39.691406 32.195312 -40.765625 28.5625 -40.765625 C 26.539062 -40.765625 25.109375 -40.546875 24.265625 -40.109375 C 23.429688 -39.671875 23.015625 -38.847656 23.015625 -37.640625 C 23.015625 -37.367188 23.046875 -37.097656 23.109375 -36.828125 C 23.179688 -36.566406 23.316406 -36.316406 23.515625 -36.078125 C 23.710938 -35.835938 23.894531 -35.632812 24.0625 -35.46875 C 24.238281 -35.300781 24.523438 -35.113281 24.921875 -34.90625 C 25.328125 -34.707031 25.644531 -34.554688 25.875 -34.453125 C 26.113281 -34.359375 26.503906 -34.207031 27.046875 -34 C 27.585938 -33.800781 27.988281 -33.648438 28.25 -33.546875 C 28.519531 -33.453125 28.972656 -33.300781 29.609375 -33.09375 C 30.253906 -32.894531 30.742188 -32.765625 31.078125 -32.703125 C 33.171875 -32.097656 34.988281 -31.421875 36.53125 -30.671875 C 38.082031 -29.929688 39.710938 -28.921875 41.421875 -27.640625 C 43.140625 -26.367188 44.46875 -24.753906 45.40625 -22.796875 C 46.351562 -20.847656 46.828125 -18.628906 46.828125 -16.140625 C 46.828125 -4.367188 38.648438 1.515625 22.296875 1.515625 C 18.597656 1.515625 15.082031 0.941406 11.75 -0.203125 C 8.425781 -1.347656 6.023438 -2.492188 4.546875 -3.640625 L 2.328125 -5.453125 L 9.59375 -17.65625 C 10.125 -17.1875 10.828125 -16.628906 11.703125 -15.984375 C 12.578125 -15.347656 14.15625 -14.472656 16.4375 -13.359375 C 18.726562 -12.253906 20.71875 -11.703125 22.40625 -11.703125 C 26.101562 -11.703125 27.953125 -12.945312 27.953125 -15.4375 C 27.953125 -16.582031 27.476562 -17.472656 26.53125 -18.109375 C 25.59375 -18.753906 24 -19.476562 21.75 -20.28125 C 19.5 -21.09375 17.734375 -21.832031 16.453125 -22.5 C 13.222656 -24.1875 10.664062 -26.085938 8.78125 -28.203125 C 6.894531 -30.328125 5.953125 -33.140625 5.953125 -36.640625 C 5.953125 -41.878906 7.988281 -45.960938 12.0625 -48.890625 C 16.132812 -51.816406 21.632812 -53.28125 28.5625 -53.28125 Z M 28.5625 -53.28125 "/></g></g></g><g fill="#ff00ff" fill-opacity="1"><g transform="translate(276.370465, 214.289567)"><g><path d="M 37.84375 0 L 25.734375 0 L -2.015625 -51.765625 L 18.5625 -51.765625 L 31.1875 -23.8125 L 43.59375 -51.765625 L 55.90625 -51.765625 L 68.328125 -23.8125 L 80.9375 -51.765625 L 101.53125 -51.765625 L 73.78125 0 L 61.65625 0 L 49.75 -26.75 Z M 37.84375 0 "/></g></g></g><g fill="#00ffff" fill-opacity="1"><g transform="translate(7.480416, 214.289567)"><g><path d="M 59.34375 -45.359375 C 64.1875 -40.078125 66.609375 -33.601562 66.609375 -25.9375 C 66.609375 -18.269531 64.1875 -11.773438 59.34375 -6.453125 C 54.5 -1.140625 48.34375 1.515625 40.875 1.515625 C 34.007812 1.515625 28.359375 -0.632812 23.921875 -4.9375 L 23.921875 26.234375 L 6.0625 26.234375 L 6.0625 -51.765625 L 23.71875 -51.765625 L 23.71875 -45.921875 L 23.921875 -45.921875 C 28.359375 -50.828125 34.007812 -53.28125 40.875 -53.28125 C 48.34375 -53.28125 54.5 -50.640625 59.34375 -45.359375 Z M 44.15625 -17.15625 C 46.476562 -19.445312 47.640625 -22.375 47.640625 -25.9375 C 47.640625 -29.5 46.523438 -32.40625 44.296875 -34.65625 C 42.078125 -36.914062 39.15625 -38.046875 35.53125 -38.046875 C 32.03125 -38.046875 29.148438 -36.898438 26.890625 -34.609375 C 24.640625 -32.328125 23.515625 -29.4375 23.515625 -25.9375 C 23.515625 -22.375 24.675781 -19.445312 27 -17.15625 C 29.320312 -14.863281 32.164062 -13.71875 35.53125 -13.71875 C 38.957031 -13.71875 41.832031 -14.863281 44.15625 -17.15625 Z M 44.15625 -17.15625 "/></g></g></g><g fill="#00ffff" fill-opacity="1"><g transform="translate(68.534479, 214.289567)"><g><path d="M 6.0625 0 L 6.0625 -51.765625 L 23.921875 -51.765625 L 23.921875 -44.3125 L 24.125 -44.3125 C 24.257812 -44.570312 24.476562 -44.90625 24.78125 -45.3125 C 25.082031 -45.71875 25.738281 -46.425781 26.75 -47.4375 C 27.757812 -48.445312 28.832031 -49.351562 29.96875 -50.15625 C 31.113281 -50.96875 32.59375 -51.691406 34.40625 -52.328125 C 36.226562 -52.960938 38.082031 -53.28125 39.96875 -53.28125 C 41.914062 -53.28125 43.832031 -53.007812 45.71875 -52.46875 C 47.601562 -51.9375 48.984375 -51.398438 49.859375 -50.859375 L 51.265625 -50.0625 L 43.796875 -34.921875 C 41.578125 -36.804688 38.484375 -37.75 34.515625 -37.75 C 32.359375 -37.75 30.503906 -37.273438 28.953125 -36.328125 C 27.410156 -35.390625 26.316406 -34.242188 25.671875 -32.890625 C 25.035156 -31.546875 24.582031 -30.40625 24.3125 -29.46875 C 24.050781 -28.53125 23.921875 -27.789062 23.921875 -27.25 L 23.921875 0 Z M 6.0625 0 "/></g></g></g><g fill="#00ffff" fill-opacity="1"><g transform="translate(110.918837, 214.289567)"><g><path d="M 10.953125 -6.15625 C 5.203125 -11.269531 2.328125 -17.828125 2.328125 -25.828125 C 2.328125 -33.835938 5.316406 -40.414062 11.296875 -45.5625 C 17.285156 -50.707031 24.6875 -53.28125 33.5 -53.28125 C 42.1875 -53.28125 49.503906 -50.691406 55.453125 -45.515625 C 61.410156 -40.335938 64.390625 -33.773438 64.390625 -25.828125 C 64.390625 -17.890625 61.476562 -11.347656 55.65625 -6.203125 C 49.832031 -1.054688 42.445312 1.515625 33.5 1.515625 C 24.21875 1.515625 16.703125 -1.039062 10.953125 -6.15625 Z M 24.78125 -34.609375 C 22.457031 -32.328125 21.296875 -29.398438 21.296875 -25.828125 C 21.296875 -22.265625 22.40625 -19.351562 24.625 -17.09375 C 26.84375 -14.84375 29.769531 -13.71875 33.40625 -13.71875 C 36.90625 -13.71875 39.78125 -14.863281 42.03125 -17.15625 C 44.289062 -19.445312 45.421875 -22.34375 45.421875 -25.84375 C 45.421875 -29.40625 44.257812 -32.328125 41.9375 -34.609375 C 39.613281 -36.898438 36.769531 -38.046875 33.40625 -38.046875 C 29.976562 -38.046875 27.101562 -36.898438 24.78125 -34.609375 Z M 24.78125 -34.609375 "/></g></g></g><g fill="#00ffff" fill-opacity="1"><g transform="translate(169.752715, 214.289567)"><g><path d="M 3.734375 12.71875 L 18.375 5.546875 C 21.0625 9.992188 25.734375 12.21875 32.390625 12.21875 C 35.484375 12.21875 38.359375 11.222656 41.015625 9.234375 C 43.679688 7.242188 45.015625 4.195312 45.015625 0.09375 L 45.015625 -3.734375 C 41.847656 -0.234375 36.195312 1.515625 28.0625 1.515625 C 20.59375 1.515625 14.4375 -1.125 9.59375 -6.40625 C 4.75 -11.6875 2.328125 -18.160156 2.328125 -25.828125 C 2.328125 -33.503906 4.75 -40 9.59375 -45.3125 C 14.4375 -50.625 20.59375 -53.28125 28.0625 -53.28125 C 34.71875 -53.28125 40.265625 -51.226562 44.703125 -47.125 L 45.015625 -47.125 L 45.015625 -51.765625 L 62.875 -51.765625 L 62.875 1.40625 C 62.875 9.820312 60.082031 16.316406 54.5 20.890625 C 48.914062 25.460938 41.546875 27.75 32.390625 27.75 C 17.585938 27.75 8.035156 22.738281 3.734375 12.71875 Z M 24.78125 -34.609375 C 22.457031 -32.328125 21.296875 -29.398438 21.296875 -25.828125 C 21.296875 -22.265625 22.40625 -19.351562 24.625 -17.09375 C 26.84375 -14.84375 29.769531 -13.71875 33.40625 -13.71875 C 36.90625 -13.71875 39.78125 -14.863281 42.03125 -17.15625 C 44.289062 -19.445312 45.421875 -22.34375 45.421875 -25.84375 C 45.421875 -29.40625 44.257812 -32.328125 41.9375 -34.609375 C 39.613281 -36.898438 36.769531 -38.046875 33.40625 -38.046875 C 29.976562 -38.046875 27.101562 -36.898438 24.78125 -34.609375 Z M 24.78125 -34.609375 "/></g></g></g><g fill="#00ffff" fill-opacity="1"><g transform="translate(230.806778, 214.289567)"><g><path d="M 28.5625 -53.28125 C 31.519531 -53.28125 34.445312 -52.941406 37.34375 -52.265625 C 40.238281 -51.597656 42.390625 -50.929688 43.796875 -50.265625 L 45.921875 -49.25 L 40.0625 -37.546875 C 36.03125 -39.691406 32.195312 -40.765625 28.5625 -40.765625 C 26.539062 -40.765625 25.109375 -40.546875 24.265625 -40.109375 C 23.429688 -39.671875 23.015625 -38.847656 23.015625 -37.640625 C 23.015625 -37.367188 23.046875 -37.097656 23.109375 -36.828125 C 23.179688 -36.566406 23.316406 -36.316406 23.515625 -36.078125 C 23.710938 -35.835938 23.894531 -35.632812 24.0625 -35.46875 C 24.238281 -35.300781 24.523438 -35.113281 24.921875 -34.90625 C 25.328125 -34.707031 25.644531 -34.554688 25.875 -34.453125 C 26.113281 -34.359375 26.503906 -34.207031 27.046875 -34 C 27.585938 -33.800781 27.988281 -33.648438 28.25 -33.546875 C 28.519531 -33.453125 28.972656 -33.300781 29.609375 -33.09375 C 30.253906 -32.894531 30.742188 -32.765625 31.078125 -32.703125 C 33.171875 -32.097656 34.988281 -31.421875 36.53125 -30.671875 C 38.082031 -29.929688 39.710938 -28.921875 41.421875 -27.640625 C 43.140625 -26.367188 44.46875 -24.753906 45.40625 -22.796875 C 46.351562 -20.847656 46.828125 -18.628906 46.828125 -16.140625 C 46.828125 -4.367188 38.648438 1.515625 22.296875 1.515625 C 18.597656 1.515625 15.082031 0.941406 11.75 -0.203125 C 8.425781 -1.347656 6.023438 -2.492188 4.546875 -3.640625 L 2.328125 -5.453125 L 9.59375 -17.65625 C 10.125 -17.1875 10.828125 -16.628906 11.703125 -15.984375 C 12.578125 -15.347656 14.15625 -14.472656 16.4375 -13.359375 C 18.726562 -12.253906 20.71875 -11.703125 22.40625 -11.703125 C 26.101562 -11.703125 27.953125 -12.945312 27.953125 -15.4375 C 27.953125 -16.582031 27.476562 -17.472656 26.53125 -18.109375 C 25.59375 -18.753906 24 -19.476562 21.75 -20.28125 C 19.5 -21.09375 17.734375 -21.832031 16.453125 -22.5 C 13.222656 -24.1875 10.664062 -26.085938 8.78125 -28.203125 C 6.894531 -30.328125 5.953125 -33.140625 5.953125 -36.640625 C 5.953125 -41.878906 7.988281 -45.960938 12.0625 -48.890625 C 16.132812 -51.816406 21.632812 -53.28125 28.5625 -53.28125 Z M 28.5625 -53.28125 "/></g></g></g><g fill="#00ffff" fill-opacity="1"><g transform="translate(272.585625, 214.289567)"><g><path d="M 37.84375 0 L 25.734375 0 L -2.015625 -51.765625 L 18.5625 -51.765625 L 31.1875 -23.8125 L 43.59375 -51.765625 L 55.90625 -51.765625 L 68.328125 -23.8125 L 80.9375 -51.765625 L 101.53125 -51.765625 L 73.78125 0 L 61.65625 0 L 49.75 -26.75 Z M 37.84375 0 "/></g></g></g><g fill="#000000" fill-opacity="1"><g transform="translate(9.372836, 214.289567)"><g><path d="M 59.34375 -45.359375 C 64.1875 -40.078125 66.609375 -33.601562 66.609375 -25.9375 C 66.609375 -18.269531 64.1875 -11.773438 59.34375 -6.453125 C 54.5 -1.140625 48.34375 1.515625 40.875 1.515625 C 34.007812 1.515625 28.359375 -0.632812 23.921875 -4.9375 L 23.921875 26.234375 L 6.0625 26.234375 L 6.0625 -51.765625 L 23.71875 -51.765625 L 23.71875 -45.921875 L 23.921875 -45.921875 C 28.359375 -50.828125 34.007812 -53.28125 40.875 -53.28125 C 48.34375 -53.28125 54.5 -50.640625 59.34375 -45.359375 Z M 44.15625 -17.15625 C 46.476562 -19.445312 47.640625 -22.375 47.640625 -25.9375 C 47.640625 -29.5 46.523438 -32.40625 44.296875 -34.65625 C 42.078125 -36.914062 39.15625 -38.046875 35.53125 -38.046875 C 32.03125 -38.046875 29.148438 -36.898438 26.890625 -34.609375 C 24.640625 -32.328125 23.515625 -29.4375 23.515625 -25.9375 C 23.515625 -22.375 24.675781 -19.445312 27 -17.15625 C 29.320312 -14.863281 32.164062 -13.71875 35.53125 -13.71875 C 38.957031 -13.71875 41.832031 -14.863281 44.15625 -17.15625 Z M 44.15625 -17.15625 "/></g></g></g><g fill="#000000" fill-opacity="1"><g transform="translate(70.426899, 214.289567)"><g><path d="M 6.0625 0 L 6.0625 -51.765625 L 23.921875 -51.765625 L 23.921875 -44.3125 L 24.125 -44.3125 C 24.257812 -44.570312 24.476562 -44.90625 24.78125 -45.3125 C 25.082031 -45.71875 25.738281 -46.425781 26.75 -47.4375 C 27.757812 -48.445312 28.832031 -49.351562 29.96875 -50.15625 C 31.113281 -50.96875 32.59375 -51.691406 34.40625 -52.328125 C 36.226562 -52.960938 38.082031 -53.28125 39.96875 -53.28125 C 41.914062 -53.28125 43.832031 -53.007812 45.71875 -52.46875 C 47.601562 -51.9375 48.984375 -51.398438 49.859375 -50.859375 L 51.265625 -50.0625 L 43.796875 -34.921875 C 41.578125 -36.804688 38.484375 -37.75 34.515625 -37.75 C 32.359375 -37.75 30.503906 -37.273438 28.953125 -36.328125 C 27.410156 -35.390625 26.316406 -34.242188 25.671875 -32.890625 C 25.035156 -31.546875 24.582031 -30.40625 24.3125 -29.46875 C 24.050781 -28.53125 23.921875 -27.789062 23.921875 -27.25 L 23.921875 0 Z M 6.0625 0 "/></g></g></g><g fill="#000000" fill-opacity="1"><g transform="translate(112.811257, 214.289567)"><g><path d="M 10.953125 -6.15625 C 5.203125 -11.269531 2.328125 -17.828125 2.328125 -25.828125 C 2.328125 -33.835938 5.316406 -40.414062 11.296875 -45.5625 C 17.285156 -50.707031 24.6875 -53.28125 33.5 -53.28125 C 42.1875 -53.28125 49.503906 -50.691406 55.453125 -45.515625 C 61.410156 -40.335938 64.390625 -33.773438 64.390625 -25.828125 C 64.390625 -17.890625 61.476562 -11.347656 55.65625 -6.203125 C 49.832031 -1.054688 42.445312 1.515625 33.5 1.515625 C 24.21875 1.515625 16.703125 -1.039062 10.953125 -6.15625 Z M 24.78125 -34.609375 C 22.457031 -32.328125 21.296875 -29.398438 21.296875 -25.828125 C 21.296875 -22.265625 22.40625 -19.351562 24.625 -17.09375 C 26.84375 -14.84375 29.769531 -13.71875 33.40625 -13.71875 C 36.90625 -13.71875 39.78125 -14.863281 42.03125 -17.15625 C 44.289062 -19.445312 45.421875 -22.34375 45.421875 -25.84375 C 45.421875 -29.40625 44.257812 -32.328125 41.9375 -34.609375 C 39.613281 -36.898438 36.769531 -38.046875 33.40625 -38.046875 C 29.976562 -38.046875 27.101562 -36.898438 24.78125 -34.609375 Z M 24.78125 -34.609375 "/></g></g></g><g fill="#000000" fill-opacity="1"><g transform="translate(171.645135, 214.289567)"><g><path d="M 3.734375 12.71875 L 18.375 5.546875 C 21.0625 9.992188 25.734375 12.21875 32.390625 12.21875 C 35.484375 12.21875 38.359375 11.222656 41.015625 9.234375 C 43.679688 7.242188 45.015625 4.195312 45.015625 0.09375 L 45.015625 -3.734375 C 41.847656 -0.234375 36.195312 1.515625 28.0625 1.515625 C 20.59375 1.515625 14.4375 -1.125 9.59375 -6.40625 C 4.75 -11.6875 2.328125 -18.160156 2.328125 -25.828125 C 2.328125 -33.503906 4.75 -40 9.59375 -45.3125 C 14.4375 -50.625 20.59375 -53.28125 28.0625 -53.28125 C 34.71875 -53.28125 40.265625 -51.226562 44.703125 -47.125 L 45.015625 -47.125 L 45.015625 -51.765625 L 62.875 -51.765625 L 62.875 1.40625 C 62.875 9.820312 60.082031 16.316406 54.5 20.890625 C 48.914062 25.460938 41.546875 27.75 32.390625 27.75 C 17.585938 27.75 8.035156 22.738281 3.734375 12.71875 Z M 24.78125 -34.609375 C 22.457031 -32.328125 21.296875 -29.398438 21.296875 -25.828125 C 21.296875 -22.265625 22.40625 -19.351562 24.625 -17.09375 C 26.84375 -14.84375 29.769531 -13.71875 33.40625 -13.71875 C 36.90625 -13.71875 39.78125 -14.863281 42.03125 -17.15625 C 44.289062 -19.445312 45.421875 -22.34375 45.421875 -25.84375 C 45.421875 -29.40625 44.257812 -32.328125 41.9375 -34.609375 C 39.613281 -36.898438 36.769531 -38.046875 33.40625 -38.046875 C 29.976562 -38.046875 27.101562 -36.898438 24.78125 -34.609375 Z M 24.78125 -34.609375 "/></g></g></g><g fill="#000000" fill-opacity="1"><g transform="translate(232.699198, 214.289567)"><g><path d="M 28.5625 -53.28125 C 31.519531 -53.28125 34.445312 -52.941406 37.34375 -52.265625 C 40.238281 -51.597656 42.390625 -50.929688 43.796875 -50.265625 L 45.921875 -49.25 L 40.0625 -37.546875 C 36.03125 -39.691406 32.195312 -40.765625 28.5625 -40.765625 C 26.539062 -40.765625 25.109375 -40.546875 24.265625 -40.109375 C 23.429688 -39.671875 23.015625 -38.847656 23.015625 -37.640625 C 23.015625 -37.367188 23.046875 -37.097656 23.109375 -36.828125 C 23.179688 -36.566406 23.316406 -36.316406 23.515625 -36.078125 C 23.710938 -35.835938 23.894531 -35.632812 24.0625 -35.46875 C 24.238281 -35.300781 24.523438 -35.113281 24.921875 -34.90625 C 25.328125 -34.707031 25.644531 -34.554688 25.875 -34.453125 C 26.113281 -34.359375 26.503906 -34.207031 27.046875 -34 C 27.585938 -33.800781 27.988281 -33.648438 28.25 -33.546875 C 28.519531 -33.453125 28.972656 -33.300781 29.609375 -33.09375 C 30.253906 -32.894531 30.742188 -32.765625 31.078125 -32.703125 C 33.171875 -32.097656 34.988281 -31.421875 36.53125 -30.671875 C 38.082031 -29.929688 39.710938 -28.921875 41.421875 -27.640625 C 43.140625 -26.367188 44.46875 -24.753906 45.40625 -22.796875 C 46.351562 -20.847656 46.828125 -18.628906 46.828125 -16.140625 C 46.828125 -4.367188 38.648438 1.515625 22.296875 1.515625 C 18.597656 1.515625 15.082031 0.941406 11.75 -0.203125 C 8.425781 -1.347656 6.023438 -2.492188 4.546875 -3.640625 L 2.328125 -5.453125 L 9.59375 -17.65625 C 10.125 -17.1875 10.828125 -16.628906 11.703125 -15.984375 C 12.578125 -15.347656 14.15625 -14.472656 16.4375 -13.359375 C 18.726562 -12.253906 20.71875 -11.703125 22.40625 -11.703125 C 26.101562 -11.703125 27.953125 -12.945312 27.953125 -15.4375 C 27.953125 -16.582031 27.476562 -17.472656 26.53125 -18.109375 C 25.59375 -18.753906 24 -19.476562 21.75 -20.28125 C 19.5 -21.09375 17.734375 -21.832031 16.453125 -22.5 C 13.222656 -24.1875 10.664062 -26.085938 8.78125 -28.203125 C 6.894531 -30.328125 5.953125 -33.140625 5.953125 -36.640625 C 5.953125 -41.878906 7.988281 -45.960938 12.0625 -48.890625 C 16.132812 -51.816406 21.632812 -53.28125 28.5625 -53.28125 Z M 28.5625 -53.28125 "/></g></g></g><g fill="#000000" fill-opacity="1"><g transform="translate(274.478045, 214.289567)"><g><path d="M 37.84375 0 L 25.734375 0 L -2.015625 -51.765625 L 18.5625 -51.765625 L 31.1875 -23.8125 L 43.59375 -51.765625 L 55.90625 -51.765625 L 68.328125 -23.8125 L 80.9375 -51.765625 L 101.53125 -51.765625 L 73.78125 0 L 61.65625 0 L 49.75 -26.75 Z M 37.84375 0 "/></g></g></g><g fill="#ff00ff" fill-opacity="1"><g transform="translate(368.003854, 214.289567)"><g/></g></g><g fill="#00ffff" fill-opacity="1"><g transform="translate(364.219014, 214.289567)"><g/></g></g><g fill="#000000" fill-opacity="1"><g transform="translate(366.111434, 214.289567)"><g/></g></g><g clip-path="url(#3e65b2ab41)"><path fill="#e4e1da" d="M 217.8125 186.304688 L 208.558594 186.304688 C 192.71875 182.878906 189.199219 179.34375 185.769531 163.480469 L 185.769531 154.589844 L 184.597656 154.589844 L 184.597656 163.574219 C 181.179688 179.355469 177.636719 182.882812 161.832031 186.304688 L 155.082031 186.304688 L 155.082031 187.476562 L 161.832031 187.476562 C 177.636719 190.898438 181.179688 194.421875 184.597656 210.207031 L 184.597656 219.027344 L 185.769531 219.027344 L 185.769531 210.300781 C 189.199219 194.4375 192.71875 190.902344 208.558594 187.476562 L 217.8125 187.476562 Z M 217.8125 186.304688 " fill-opacity="1" fill-rule="nonzero"/></g></svg>